<svg xmlns="http://www.w3.org/2000/svg" version="1.1" xmlns:xlink="http://www.w3.org/1999/xlink" xmlns:svgjs="http://svgjs.dev/svgjs" width="1000" height="1000" viewBox="0 0 1000 1000"><rect width="1000" height="1000" fill="#0080ff"></rect><g transform="matrix(0.7,0,0,0.7,150.56707646045402,94.67846153846153)"><svg viewBox="0 0 213 247" data-background-color="#0080ff" preserveAspectRatio="xMidYMid meet" height="1159" width="1000" xmlns="http://www.w3.org/2000/svg" xmlns:xlink="http://www.w3.org/1999/xlink"><g id="tight-bounds" transform="matrix(1,0,0,1,-0.17255326582386488,-0.09999999999999432)"><svg viewBox="0 0 213.34510653164776 247.2" height="247.2" width="213.34510653164776"><g><svg viewBox="0 0 397.4975999999999 460.57492631275244" height="247.2" width="213.34510653164776"><g><rect width="397.4975999999999" height="8.209483557822928" x="0" y="248.011718281559" fill="#ffffff" opacity="1" stroke-width="0" stroke="transparent" fill-opacity="1" class="rect-qz-0" data-fill-palette-color="primary" rx="1%" id="qz-0" data-palette-color="#ffffff"></rect></g><g><rect width="397.4975999999999" height="8.209483557822928" x="0" y="266.9665991663753" fill="#ffffff" opacity="1" stroke-width="0" stroke="transparent" fill-opacity="1" class="rect-qz-1" data-fill-palette-color="primary" rx="1%" id="qz-1" data-palette-color="#ffffff"></rect></g><g transform="matrix(1,0,0,1,0.9887999999999693,296.66687737818495)"><svg viewBox="0 0 395.52 163.9080489345675" height="163.9080489345675" width="395.52"><g id="textblocktransform"><svg viewBox="0 0 395.52 163.9080489345675" height="163.9080489345675" width="395.52" id="textblock"><g><svg viewBox="0 0 395.52 91.03337337970281" height="91.03337337970281" width="395.52"><g transform="matrix(1,0,0,1,0,0)"><svg width="395.52" viewBox="0.78 -34.79 154.43 35.55" height="91.03337337970281" data-palette-color="#ffffff"><path d="M14.04-12.55L14.04-9.55Q14.14-9.47 14.6-9.47 15.06-9.47 15.31-9.79 15.55-10.11 15.55-10.91L15.55-10.91 15.55-11.38Q15.55-12.28 15.34-12.67 15.14-13.06 14.66-13.06 14.18-13.06 14.01-12.96L14.01-12.96Q14.04-12.84 14.04-12.55L14.04-12.55ZM14.04-21.51L14.04-18.75Q14.14-18.68 14.6-18.68 15.06-18.68 15.31-19.04 15.55-19.41 15.55-20.24L15.55-20.24 15.55-20.39Q15.55-21.26 15.34-21.64 15.14-22.02 14.66-22.02 14.18-22.02 14.01-21.92L14.01-21.92Q14.04-21.8 14.04-21.51L14.04-21.51ZM0.78-5.76L0.78-28.15Q0.78-28.71 1.71-29.42L1.71-29.42Q3.66-30.91 8.59-31.74L8.59-31.74Q11.16-32.15 14.23-32.15L14.23-32.15Q21.56-32.15 25.32-29.32L25.32-29.32Q28.61-26.83 28.61-22.78L28.61-22.78Q28.61-21.31 28.1-19.91 27.59-18.51 26.64-17.8L26.64-17.8Q25.34-18.46 24.15-18.46L24.15-18.46Q23.58-18.46 23.29-18.24 23-18.02 23-17.43L23-17.43Q26.59-17.29 28.59-14.84L28.59-14.84Q30.37-12.62 30.37-9.33L30.37-9.33Q30.37-4.22 26.1-1.9L26.1-1.9Q22.09 0.27 14.04 0.27L14.04 0.27Q8.4 0.27 5.76-0.09 3.13-0.44 1.95-1.76 0.78-3.08 0.78-5.76L0.78-5.76ZM44.41-10.64L44.41-10.64Q44.7-10.64 45.04-10.89L45.04-10.89Q44.8-11.69 44.8-13.4L44.8-13.4 44.8-25.46Q47.39-27.03 51.02-27.03L51.02-27.03Q53.07-27.03 54.62-26.48 56.17-25.93 57-25.02L57-25.02 57-12.3Q57-8.67 58.76-7.57L58.76-7.57Q58.79-7.45 58.79-7.1L58.79-7.1 58.79-6.67Q58.79-3.1 56.91-1.27L56.91-1.27Q55.2 0.44 52.19 0.44L52.19 0.44Q50.31 0.44 48.79-0.42 47.26-1.27 46.51-2.91L46.51-2.91Q45.68-2.91 45.68-2.1L45.68-2.1Q45.68-1.54 46.24-0.98L46.24-0.98Q45.46-0.34 44.36 0.05 43.26 0.44 41.12 0.44 38.99 0.44 36.96-0.44L36.96-0.44Q34.45-1.51 33.1-3.74L33.1-3.74Q31.47-6.37 31.47-10.42L31.47-10.42 31.47-16.55Q30.22-18.73 30.22-21.34L30.22-21.34Q30.22-22.68 30.56-24.12 30.91-25.56 31.66-26.68L31.66-26.68 37.03-26.68Q40.06-26.68 41.78-25.26 43.5-23.83 43.5-20.92L43.5-20.92 43.5-13.01Q43.5-10.64 44.41-10.64ZM71.75-9.99L71.75-9.99Q71.99-9.74 72.33-9.74L72.33-9.74Q72.87-9.74 73.07-10.51 73.26-11.28 73.26-13.62L73.26-13.62 73.26-16.11Q73.26-16.77 73.09-17.04 72.92-17.31 72.53-17.31 72.14-17.31 71.97-17.14L71.97-17.14 71.97-13.87Q71.97-12.4 71.75-9.99ZM72.72-29.98L72.72-29.98 72.72-27.81Q70.67-27.69 68.96-27.19 67.26-26.68 67.26-26.03L67.26-26.03Q67.26-25.63 67.65-25.39L67.65-25.39Q70.33-26.71 73.33-26.71L73.33-26.71Q78.71-26.71 82.14-23.01 85.57-19.31 85.57-13.38L85.57-13.38Q85.57-6.2 81.42-2.56L81.42-2.56Q77.63 0.76 71.13 0.76 64.62 0.76 61.54-1.76L61.54-1.76Q59.86-3.15 59.86-5.37L59.86-5.37 59.86-33.23Q61.03-33.91 62.68-34.35 64.33-34.79 66.01-34.79L66.01-34.79Q68.82-34.79 70.65-33.69L70.65-33.69Q72.72-32.4 72.72-29.98ZM98.85-9.99L98.85-9.99Q99.09-9.74 99.43-9.74L99.43-9.74Q99.97-9.74 100.16-10.51 100.36-11.28 100.36-13.62L100.36-13.62 100.36-16.11Q100.36-16.77 100.19-17.04 100.02-17.31 99.63-17.31 99.24-17.31 99.06-17.14L99.06-17.14 99.06-13.87Q99.06-12.4 98.85-9.99ZM99.82-29.98L99.82-29.98 99.82-27.81Q97.77-27.69 96.06-27.19 94.35-26.68 94.35-26.03L94.35-26.03Q94.35-25.63 94.74-25.39L94.74-25.39Q97.43-26.71 100.43-26.71L100.43-26.71Q105.8-26.71 109.23-23.01 112.66-19.31 112.66-13.38L112.66-13.38Q112.66-6.2 108.51-2.56L108.51-2.56Q104.73 0.76 98.22 0.76 91.72 0.76 88.64-1.76L88.64-1.76Q86.96-3.15 86.96-5.37L86.96-5.37 86.96-33.23Q88.13-33.91 89.78-34.35 91.42-34.79 93.11-34.79L93.11-34.79Q95.92-34.79 97.75-33.69L97.75-33.69Q99.82-32.4 99.82-29.98ZM126.48-29.47L126.48-29.47 126.48-12.3Q126.48-8.67 128.24-7.57L128.24-7.57Q128.26-7.45 128.26-7.1L128.26-7.1 128.26-6.67Q128.26-3.17 126.49-1.37 124.72 0.44 121.47 0.44 118.23 0.44 116.32-1.37L116.32-1.37Q114.05-3.52 114.05-7.86L114.05-7.86 114.05-33.23Q116.62-34.79 119.92-34.79 123.23-34.79 124.86-33.39 126.48-31.98 126.48-29.47ZM143.22 0.76L143.22 0.76Q136.46 0.76 132.56-3L132.56-3Q128.55-6.79 128.55-13.37 128.55-19.95 132.68-23.8L132.68-23.8Q136.49-27.39 142.32-27.39 148.16-27.39 151.68-24.18 155.21-20.97 155.21-16.28L155.21-16.28Q155.21-12.11 152.31-9.99L152.31-9.99Q149.62-7.98 144.98-7.98L144.98-7.98Q141.52-7.98 139.12-9.42L139.12-9.42Q138.93-9.28 138.93-8.89L138.93-8.89Q138.93-8.15 140.86-7.54L140.86-7.54Q142.79-6.88 145.24-6.88 147.69-6.88 149.71-7.51 151.72-8.13 152.94-8.98L152.94-8.98Q153.53-8.47 153.88-7.09 154.24-5.71 154.24-4.58 154.24-3.44 154.02-2.56L154.02-2.56Q152.11-0.95 150.11-0.27L150.11-0.27Q147.28 0.76 143.22 0.76ZM142.91-15.77L142.91-15.77Q144.13-15.77 144.13-16.7L144.13-16.7Q144.13-17.58 142.83-17.58 141.54-17.58 141.34-16.19L141.34-16.19Q142.03-15.77 142.91-15.77Z" opacity="1" transform="matrix(1,0,0,1,0,0)" fill="#ffffff" class="wordmark-text-0" data-fill-palette-color="primary" id="text-0"></path></svg></g></svg></g><g transform="matrix(1,0,0,1,0,112.52416803368953)"><svg viewBox="0 0 395.52 51.383880900877976" height="51.383880900877976" width="395.52"><g transform="matrix(1,0,0,1,0,0)"><svg width="395.52" viewBox="7.08 -36.89 383.7 49.85" height="51.383880900877976" data-palette-color="#ffffff"><path d="M27.17-31.03L11.23-31.03 11.23-19.7 25.71-19.7 25.71-16.04 11.23-16.04 11.23 0 7.08 0 7.08-34.69 27.17-34.69 27.17-31.03ZM34.49-30.08L34.49-34.69 39.23-34.69 39.23-30.08 34.49-30.08ZM34.86 0L34.86-24.12 38.86-24.12 38.86 0 34.86 0ZM47.65 0L47.65-24.12 50.46-24.12 51.34-22.07Q56-24.61 59.83-24.61L59.83-24.61Q61.81-24.61 63.28-23.99 64.74-23.36 65.55-22.42 66.35-21.48 66.83-20.06 67.3-18.63 67.44-17.33 67.57-16.04 67.57-14.38L67.57-14.38 67.57 0 63.57 0 63.57-14.65Q63.57-21 58.1-21L58.1-21Q55.27-21 51.66-19.12L51.66-19.12 51.66 0 47.65 0ZM75.14-11.65L75.14-11.65Q75.14-14.77 76.02-17.26 76.9-19.75 78.43-21.34 79.97-22.92 82.04-23.77 84.1-24.61 86.49-24.61L86.49-24.61Q89.37-24.61 92.33-23.32L92.33-23.32 92.33-36.89 96.33-36.89 96.33 0 93.55 0 92.89-1.51Q89.49 0.49 85.81 0.49L85.81 0.49Q84.29 0.49 82.85 0.12 81.41-0.24 80-1.15 78.58-2.05 77.52-3.41 76.46-4.76 75.8-6.88 75.14-9.01 75.14-11.65ZM87.13-2.81L87.13-2.81Q89.79-2.81 92.33-4.17L92.33-4.17 92.33-20.29Q89.71-21.46 87.08-21.46L87.08-21.46Q85.95-21.46 84.9-21.22 83.85-20.97 82.76-20.34 81.66-19.7 80.86-18.7 80.07-17.7 79.56-16.05 79.05-14.4 79.05-12.28L79.05-12.28Q79.05-10.08 79.58-8.36 80.12-6.64 80.95-5.62 81.78-4.59 82.9-3.93 84.03-3.27 85.05-3.04 86.08-2.81 87.13-2.81ZM125.94 1.2L115.86-24.12 120.25-24.12 127.97-3.66 135.14-24.12 139.29-24.12 125.38 12.96 121.11 12.96 125.94 1.2ZM155.43-24.58L155.43-24.58Q160.43-24.58 163.67-21.39 166.9-18.19 166.9-12.55L166.9-12.55Q166.9-6.57 163.6-3.04 160.29 0.49 155.04 0.49L155.04 0.49Q150.03 0.49 146.86-2.82 143.69-6.13 143.69-11.79L143.69-11.79Q143.69-17.63 146.92-21.11 150.16-24.58 155.43-24.58ZM155.09-21.17L155.09-21.17Q152.08-21.17 149.84-18.85 147.59-16.53 147.59-12.48L147.59-12.48Q147.59-8.45 149.79-5.69 151.99-2.93 155.48-2.93L155.48-2.93Q158.7-2.93 160.85-5.37 163-7.81 163-11.74L163-11.74Q163-13.99 162.3-15.82 161.61-17.65 160.47-18.8 159.34-19.95 157.94-20.56 156.55-21.17 155.09-21.17ZM190.41-4.98L190.41-24.12 194.42-24.12 194.42 0 191.61 0 190.75-2.03Q186.14 0.49 182.23 0.49L182.23 0.49Q180.26 0.49 178.79-0.13 177.33-0.76 176.52-1.68 175.71-2.61 175.23-4.04 174.74-5.47 174.6-6.76 174.47-8.06 174.47-9.72L174.47-9.72 174.47-24.12 178.47-24.12 178.47-9.42Q178.47-3.1 183.97-3.1L183.97-3.1Q186.8-3.1 190.41-4.98L190.41-4.98ZM206.01-24.12L206.77-22.31Q209.82-24.58 213.51-24.58L213.51-24.58Q216.04-24.58 218.12-23.63L218.12-23.63 216.9-20.43Q214.99-21.17 212.94-21.17L212.94-21.17Q209.89-21.17 207.21-19.48L207.21-19.48 207.21 0 203.2 0 203.2-24.12 206.01-24.12ZM249.95-31.52L243.26-31.52 243.26-19.87Q243.73-19.9 244.87-19.91 246.02-19.92 246.65-19.93 247.29-19.95 248.44-20.03 249.58-20.12 250.28-20.23 250.98-20.34 251.96-20.57 252.95-20.8 253.58-21.11 254.2-21.41 254.89-21.89 255.59-22.36 255.98-22.95 256.37-23.54 256.63-24.35 256.88-25.17 256.88-26.15L256.88-26.15Q256.88-26.88 256.74-27.54 256.59-28.2 256.13-28.96 255.66-29.71 254.93-30.25 254.2-30.79 252.92-31.15 251.64-31.52 249.95-31.52L249.95-31.52ZM243.26-16.65L243.26-16.65 243.26-3.66 249.73-3.66Q250.61-3.66 251.21-3.67 251.81-3.69 252.93-3.82 254.05-3.96 254.85-4.19 255.64-4.42 256.62-4.9 257.59-5.37 258.19-6.03 258.79-6.69 259.2-7.73 259.62-8.76 259.62-10.08L259.62-10.08Q259.62-13.33 257.1-15.16 254.59-16.99 250.34-16.99L250.34-16.99Q249.88-16.99 243.26-16.65ZM239.11 0L239.11-34.69 251.34-34.69Q253.12-34.69 254.6-34.31 256.08-33.94 257.04-33.35 258.01-32.76 258.75-31.96 259.5-31.15 259.89-30.4 260.28-29.64 260.52-28.78 260.77-27.93 260.83-27.38 260.89-26.83 260.89-26.34L260.89-26.34Q260.89-24.22 259.45-22.11 258.01-20 256.4-19.38L256.4-19.38Q259.62-18.8 261.68-16.27 263.74-13.75 263.74-10.52L263.74-10.52Q263.74-9.77 263.61-8.94 263.48-8.11 263.09-7.06 262.69-6.01 262.08-5.05 261.47-4.1 260.42-3.16 259.37-2.22 258.02-1.54 256.66-0.85 254.7-0.43 252.73 0 250.39 0L250.39 0 239.11 0ZM287.13-4.98L287.13-24.12 291.13-24.12 291.13 0 288.33 0 287.47-2.03Q282.86 0.49 278.95 0.49L278.95 0.49Q276.97 0.49 275.51-0.13 274.04-0.76 273.24-1.68 272.43-2.61 271.95-4.04 271.46-5.47 271.32-6.76 271.19-8.06 271.19-9.72L271.19-9.72 271.19-24.12 275.19-24.12 275.19-9.42Q275.19-3.1 280.69-3.1L280.69-3.1Q283.52-3.1 287.13-4.98L287.13-4.98ZM300.17 0L300.17-36.89 304.17-36.89 304.17-22.97Q307.32-24.61 310.61-24.61L310.61-24.61Q312.08-24.61 313.5-24.26 314.91-23.9 316.34-23.01 317.77-22.12 318.84-20.78 319.92-19.43 320.59-17.26 321.26-15.09 321.26-12.35L321.26-12.35Q321.26-6.4 318.1-2.95 314.94 0.49 309.91 0.49L309.91 0.49Q306.61 0.49 303.44-1.12L303.44-1.12 302.95 0 300.17 0ZM309.25-21.29L309.25-21.29Q306.64-21.29 304.17-20L304.17-20 304.17-3.78Q306.78-2.66 309.32-2.66L309.32-2.66Q310.44-2.66 311.49-2.91 312.54-3.15 313.63-3.8 314.72-4.44 315.52-5.42 316.33-6.4 316.84-8.01 317.35-9.62 317.35-11.65L317.35-11.65Q317.35-13.94 316.82-15.71 316.28-17.48 315.45-18.51 314.62-19.53 313.5-20.19 312.37-20.85 311.35-21.07 310.32-21.29 309.25-21.29ZM329.04 0L329.04-36.89 333.05-36.89 333.05-22.97Q336.2-24.61 339.49-24.61L339.49-24.61Q340.96-24.61 342.37-24.26 343.79-23.9 345.22-23.01 346.65-22.12 347.72-20.78 348.8-19.43 349.47-17.26 350.14-15.09 350.14-12.35L350.14-12.35Q350.14-6.4 346.98-2.95 343.82 0.49 338.79 0.49L338.79 0.49Q335.49 0.49 332.32-1.12L332.32-1.12 331.83 0 329.04 0ZM338.13-21.29L338.13-21.29Q335.51-21.29 333.05-20L333.05-20 333.05-3.78Q335.66-2.66 338.2-2.66L338.2-2.66Q339.32-2.66 340.37-2.91 341.42-3.15 342.51-3.8 343.6-4.44 344.4-5.42 345.21-6.4 345.72-8.01 346.23-9.62 346.23-11.65L346.23-11.65Q346.23-13.94 345.7-15.71 345.16-17.48 344.33-18.51 343.5-19.53 342.37-20.19 341.25-20.85 340.23-21.07 339.2-21.29 338.13-21.29ZM358.17 0L358.17-36.89 362.17-36.89 362.17 0 358.17 0ZM381.82-24.58L381.82-24.58Q383.58-24.58 384.98-24.16 386.39-23.73 387.32-23.07 388.24-22.41 388.92-21.35 389.59-20.29 389.94-19.3 390.29-18.31 390.49-16.92 390.69-15.53 390.73-14.5 390.78-13.48 390.78-12.08L390.78-12.08 390.78-10.18 374.21-10.18Q374.21-8.86 374.8-7.56 375.4-6.25 376.49-5.16 377.57-4.08 379.34-3.39 381.11-2.71 383.26-2.71L383.26-2.71Q385.8-2.71 388.76-3.59L388.76-3.59 389.46-0.85Q385.53 0.49 381.75 0.49L381.75 0.49Q379.09 0.49 377.03-0.22 374.96-0.93 373.71-2.06 372.45-3.2 371.64-4.79 370.84-6.37 370.53-7.95 370.23-9.52 370.23-11.28L370.23-11.28Q370.23-13.99 370.89-16.24 371.54-18.48 372.67-20.01 373.79-21.53 375.29-22.58 376.79-23.63 378.44-24.11 380.09-24.58 381.82-24.58ZM380.97-21.12L380.97-21.12Q378.82-21.12 377.27-19.93 375.72-18.75 375.01-16.99 374.3-15.23 374.3-13.21L374.3-13.21 386.9-13.21Q386.9-21.12 380.97-21.12Z" opacity="1" transform="matrix(1,0,0,1,0,0)" fill="#ffffff" class="slogan-text-1" data-fill-palette-color="secondary" id="text-1"></path></svg></g></svg></g></svg></g></svg></g><g transform="matrix(1,0,0,1,85.48833818621381,0)"><svg viewBox="0 0 226.5209236275723 226.5209236275723" height="226.5209236275723" width="226.5209236275723"><g><svg xmlns="http://www.w3.org/2000/svg" xmlns:xlink="http://www.w3.org/1999/xlink" version="1.1" x="0" y="0" viewBox="1.677 0.968 129 129" enable-background="new 0 0 132 131.5" xml:space="preserve" height="226.5209236275723" width="226.5209236275723" class="icon-icon-0" data-fill-palette-color="accent" id="icon-0"><g display="none" fill="#ffffff" data-fill-palette-color="accent"><g display="inline" fill="#ffffff" data-fill-palette-color="accent"><g fill="#ffffff" data-fill-palette-color="accent"><path fill="#ffffff" stroke="#FFFFFF" stroke-miterlimit="10" d="M110.677 31.147v-0.381c0-5.412-4.387-9.799-9.797-9.799h-0.383c-0.953-5.673-5.876-10-11.82-10h-45c-5.943 0-10.865 4.327-11.819 10h-0.382c-5.411 0-9.799 4.387-9.799 9.799v0.381c-5.672 0.954-10 5.876-10 11.82v45c0 5.945 4.328 10.867 10 11.821v0.381c0 5.412 4.388 9.798 9.799 9.798h0.382c0.954 5.674 5.876 10 11.819 10h45c5.944 0 10.867-4.326 11.82-10h0.383c5.41 0 9.797-4.386 9.797-9.798v-0.381c5.674-0.954 10-5.876 10-11.821v-45C120.677 37.023 116.351 32.102 110.677 31.147z" data-fill-palette-color="accent"></path></g></g></g><g fill="#ffffff" data-fill-palette-color="accent"><path display="none" fill="#ffffff" d="M104.52 100.184H23.957l0.035-8.977c0.371-1.679 0.922-3.27 1.638-4.729 0.596-1.282 1.421-2.543 2.511-3.826 1.136-1.338 2.615-2.35 4.396-3.006 0.67-0.278 7.537-3.893 12.552-6.531 3.871-2.037 6.635-3.489 7.996-4.188v-2.496l-0.315-1.195c-0.165-0.585-0.338-1.204-0.527-1.838-0.207-0.692-0.451-1.444-0.726-2.245-1.115-2.098-2.015-4.496-2.672-7.133-0.094-0.378-0.17-0.758-0.246-1.138l-0.252-1.253 0.887-0.549c1.343-0.831 2.145-2.261 2.145-3.826v-3.672c0-1.155-0.437-2.249-1.228-3.081l-0.489-0.514 0.087-0.704c0.498-4.044 1.878-7.292 4.101-9.653 3.152-3.349 7.351-4.24 9.572-4.474l1.271-0.068 2.058 0.164c2.049 0.307 5.921 1.284 8.834 4.376 2.223 2.362 3.602 5.61 4.1 9.655l0.087 0.704-0.488 0.514c-0.792 0.832-1.228 1.926-1.228 3.081v3.672c0 1.068 0.381 2.102 1.072 2.909l0.548 0.641-0.262 0.801c-0.527 1.612-1.392 2.949-2.57 3.975-1.884 1.637-4.6 2.483-8.072 2.518l-0.638 0.006-0.447-0.455c-0.782-0.796-1.864-1.253-2.969-1.253-2.297 0-4.166 1.869-4.166 4.167s1.869 4.167 4.166 4.167c0.923 0 1.832-0.313 2.562-0.884l0.43-0.335 0.839 0.021c2.324 0 4.488-0.305 6.432-0.905l2.699-0.835-1.104 3.653c-0.214 0.753-0.217 1.01-0.217 1.021v2.854c1.482 0.762 4.576 2.406 8.945 4.73 4.485 2.386 10.067 5.356 10.656 5.607 1.794 0.646 3.298 1.658 4.435 2.995 1.071 1.256 1.897 2.516 2.523 3.851 0.716 1.476 1.249 3.076 1.575 4.74l0.028 0.289V100.184zM46.485 75.771c-10.078 5.303-12.501 6.557-12.963 6.708-1.257 0.465-2.286 1.162-3.095 2.115-0.913 1.075-1.597 2.115-2.091 3.178-0.602 1.227-1.062 2.539-1.38 3.927v5.485h74.562v-5.503c-0.279-1.361-0.72-2.668-1.312-3.887-0.519-1.107-1.203-2.146-2.099-3.197-0.807-0.949-1.854-1.646-3.204-2.132-0.396-0.136-2.354-1.161-11.013-5.768-4.271-2.272-9.11-4.848-9.635-5.075l-0.899-0.394-0.002-4.764c0-0.111 0.007-0.232 0.02-0.362-1.491 0.277-3.062 0.421-4.699 0.429-1.17 0.775-2.557 1.197-3.962 1.197-3.951 0-7.166-3.215-7.166-7.167s3.215-7.167 7.166-7.167c1.678 0 3.322 0.608 4.608 1.688 2.45-0.102 4.315-0.695 5.55-1.768 0.592-0.515 1.066-1.165 1.415-1.94-0.802-1.214-1.235-2.647-1.235-4.12v-3.672c0-1.674 0.55-3.274 1.562-4.578-0.476-3.093-1.557-5.553-3.218-7.319-2.27-2.409-5.365-3.2-7.043-3.458l-1.703-0.133-0.998 0.052c-1.376 0.146-5.04 0.798-7.622 3.541-1.661 1.765-2.742 4.225-3.218 7.317 1.013 1.304 1.563 2.903 1.563 4.578v3.672c0 2.25-0.989 4.331-2.69 5.747 0.021 0.1 0.045 0.198 0.068 0.296 0.608 2.438 1.437 4.64 2.461 6.543l0.097 0.223c0.306 0.885 0.575 1.714 0.804 2.477 0.193 0.65 0.372 1.285 0.548 1.913l0.42 1.784v4.587M83.944 40.72c-0.356-5.843-2.158-10.519-5.395-13.939-5.564-5.883-13.274-5.829-13.836-5.811-0.588-0.017-8.279-0.062-13.835 5.811-3.235 3.421-5.038 8.096-5.394 13.939-1.063 0.519-1.804 1.6-1.804 2.863v3.672c0 1.766 1.43 3.195 3.193 3.195s3.194-1.429 3.194-3.195v-3.672c0-1.25-0.726-2.321-1.772-2.845 0.337-5.08 1.872-9.106 4.599-12.003 4.769-5.067 11.722-4.962 11.781-4.958l0.038-1.354 0.039 1.354c0.054-0.003 7.01-0.108 11.779 4.957 2.727 2.896 4.262 6.923 4.599 12.004-1.047 0.524-1.771 1.595-1.771 2.845v3.672c0 1.243 0.716 2.308 1.75 2.836-0.22 1.462-0.951 4.337-3.412 6.476-2.407 2.092-5.899 3.025-10.39 2.809-0.451-0.984-1.439-1.672-2.594-1.672-1.579 0-2.858 1.279-2.858 2.858s1.279 2.858 2.858 2.858c0.981 0 1.845-0.494 2.36-1.246 0.496 0.024 0.993 0.051 1.471 0.051 4.62 0 8.319-1.196 11.03-3.57 3.332-2.92 4.16-6.771 4.367-8.536 1.065-0.517 1.805-1.599 1.805-2.864v-3.672C85.748 42.319 85.009 41.238 83.944 40.72z" data-fill-palette-color="accent"></path><path display="none" fill="#ffffff" d="M90.969 51.772H40.927v-3h50.042V51.772zM82.177 35.772H49.719v3h32.458V35.772zM90.969 56.772H40.927v3h50.042V56.772zM90.969 64.772H40.927v3h50.042V64.772zM90.969 72.772H40.927v3h50.042V72.772zM90.969 80.772H40.927v3h50.042V80.772zM95.497 21.092h-58.64c-2.762 0-5 2.238-5 5v78.75c0 2.762 2.238 5 5 5H81.8c-2.067-0.482-3.915-1.538-5.358-3H36.857c-1.103 0-2-0.896-2-2v-78.75c0-1.104 0.897-2 2-2h58.64c1.103 0 2 0.896 2 2v78.75c0 1.104-0.897 2-2 2h-3.312c-1.443 1.462-3.291 2.518-5.358 3h8.67c2.762 0 5-2.238 5-5v-78.75C100.497 23.331 98.259 21.092 95.497 21.092zM80.278 88.772H40.927v3h35.084C77.166 90.459 78.624 89.422 80.278 88.772zM90.969 88.772h-2.62c0.944 0.371 1.822 0.869 2.62 1.473V88.772zM92.384 99.071c0 3.711-2.508 6.829-5.92 7.771-0.686 0.189-1.404 0.299-2.15 0.299s-1.465-0.109-2.15-0.299c-3.412-0.942-5.92-4.061-5.92-7.771 0-3.23 1.901-6.009 4.642-7.299C81.927 91.282 83.086 91 84.313 91s2.387 0.282 3.429 0.772C90.482 93.062 92.384 95.84 92.384 99.071zM89.151 95.901c-0.336-0.335-0.775-0.503-1.214-0.503-0.439 0-0.879 0.168-1.214 0.503l-3.459 3.461L81.903 98c-0.336-0.336-0.774-0.503-1.214-0.503S79.812 97.665 79.476 98c-0.671 0.67-0.671 1.758 0 2.428l2.575 2.574c0.321 0.322 0.759 0.504 1.214 0.504s0.893-0.182 1.214-0.504l4.673-4.674C89.822 97.659 89.822 96.571 89.151 95.901z" data-fill-palette-color="accent"></path><path display="none" fill="#ffffff" d="M47.459 64.786c0-1.415-1.146-2.562-2.561-2.562h-4.098c-1.414 0-2.561 1.146-2.561 2.562v4.694c0 1.414 1.146 2.561 2.561 2.561h4.098c1.414 0 2.561-1.146 2.561-2.561V64.786zM59.465 64.786c0-1.415-1.146-2.562-2.561-2.562h-4.098c-1.414 0-2.561 1.146-2.561 2.562v4.694c0 1.414 1.146 2.561 2.561 2.561h4.098c1.414 0 2.561-1.146 2.561-2.561V64.786zM71.471 64.786c0-1.415-1.146-2.562-2.561-2.562h-4.098c-1.414 0-2.561 1.146-2.561 2.562v4.694c0 1.414 1.146 2.561 2.561 2.561h4.098c1.414 0 2.561-1.146 2.561-2.561V64.786zM44.898 78.558c0.309 0 0.561 0.252 0.561 0.561v4.694c0 0.31-0.252 0.562-0.561 0.562h-4.098c-0.31 0-0.561-0.252-0.561-0.562v-4.694c0-0.309 0.251-0.561 0.561-0.561H44.898M44.898 76.558h-4.098c-1.414 0-2.561 1.146-2.561 2.561v4.694c0 1.415 1.146 2.562 2.561 2.562h4.098c1.414 0 2.561-1.146 2.561-2.562v-4.694C47.459 77.705 46.312 76.558 44.898 76.558L44.898 76.558zM56.904 78.558c0.309 0 0.561 0.252 0.561 0.561v4.694c0 0.31-0.252 0.562-0.561 0.562h-4.098c-0.309 0-0.561-0.252-0.561-0.562v-4.694c0-0.309 0.252-0.561 0.561-0.561H56.904M56.904 76.558h-4.098c-1.414 0-2.561 1.146-2.561 2.561v4.694c0 1.415 1.146 2.562 2.561 2.562h4.098c1.414 0 2.561-1.146 2.561-2.562v-4.694C59.465 77.705 58.318 76.558 56.904 76.558L56.904 76.558zM68.91 78.558c0.31 0 0.561 0.252 0.561 0.561v4.694c0 0.31-0.251 0.562-0.561 0.562h-4.098c-0.309 0-0.561-0.252-0.561-0.562v-4.694c0-0.309 0.252-0.561 0.561-0.561H68.91M68.91 76.558h-4.098c-1.414 0-2.561 1.146-2.561 2.561v4.694c0 1.415 1.146 2.562 2.561 2.562h4.098c1.414 0 2.561-1.146 2.561-2.562v-4.694C71.471 77.705 70.324 76.558 68.91 76.558L68.91 76.558zM80.916 78.558c0.311 0 0.562 0.252 0.562 0.561v4.694c0 0.31-0.251 0.562-0.562 0.562h-4.097c-0.31 0-0.562-0.252-0.562-0.562v-4.694c0-0.309 0.252-0.561 0.562-0.561H80.916M80.916 76.558h-4.097c-1.415 0-2.562 1.146-2.562 2.561v4.694c0 1.415 1.146 2.562 2.562 2.562h4.097c1.415 0 2.562-1.146 2.562-2.562v-4.694C83.478 77.705 82.331 76.558 80.916 76.558L80.916 76.558zM79.053 71.239l5.252-5.253c0.754-0.754 0.754-1.976 0-2.729-0.754-0.754-1.976-0.754-2.729 0l-3.888 3.889-1.53-1.53c-0.754-0.753-1.975-0.753-2.729 0s-0.754 1.976 0 2.729l2.895 2.894c0.361 0.362 0.853 0.565 1.364 0.565S78.691 71.601 79.053 71.239zM76.865 64.908l0.823 0.824 3.181-3.182c0.11-0.11 0.233-0.203 0.357-0.295-0.103-0.012-0.203-0.031-0.311-0.031h-4.097c-1.173 0-2.15 0.793-2.454 1.869 0.142-0.021 0.283-0.043 0.429-0.043C75.576 64.05 76.312 64.355 76.865 64.908zM79.645 72.041h1.271c1.415 0 2.562-1.146 2.562-2.561v-1.252l-3.718 3.718C79.725 71.982 79.682 72.007 79.645 72.041zM101.535 49.235c-0.241-0.432-0.666-0.692-1.121-0.751v-5.826-3-0.982-2.314c0-0.295-0.04-0.58-0.088-0.861-0.412-2.468-2.541-4.353-5.125-4.353h-4.318c-1.381-3.778-5.006-6.485-9.257-6.485-4.249 0-7.869 2.708-9.251 6.485H54.17c-1.381-3.778-5.006-6.485-9.257-6.485-5.436 0-9.857 4.422-9.857 9.857 0 0.298 0.019 0.591 0.044 0.882l-0.105 0.048c-0.031 0.014-0.062 0.029-0.094 0.043l-0.127 0.057h0.021c-1.779 0.83-3.021 2.623-3.021 4.716v12.87c-0.828 0-1.5 0.671-1.5 1.5 0 0.828 0.672 1.5 1.5 1.5v38.44c0 2.88 2.334 5.214 5.213 5.214h42.163 1 3l4.175-4.353h4.475c2.141-0.397 3.811-2.101 4.17-4.255 2.422-0.451 4.258-2.566 4.258-5.117V51.686l0.732-0.409C101.682 50.873 101.939 49.958 101.535 49.235zM97.188 35.403c0.141 0.291 0.227 0.613 0.227 0.958v2.042 1.255 3 7.164l-5.615 3.143v-6.402-3V42.58v-2.315c0-0.295-0.04-0.579-0.088-0.861-0.412-2.468-2.541-4.353-5.125-4.353H74.795c-0.014-0.176-0.026-0.352-0.026-0.531 0-0.125 0.013-0.248 0.019-0.372h20.414C96.076 34.147 96.828 34.663 97.188 35.403zM81.626 27.662c2.554 0 4.78 1.408 5.96 3.485H75.662C76.842 29.07 79.07 27.662 81.626 27.662zM71.795 35.05H42.348l2.143-0.903h27.297c-0.004 0.124-0.019 0.247-0.019 0.372C71.769 34.699 71.786 34.874 71.795 35.05zM44.913 27.662c2.554 0 4.78 1.408 5.96 3.485h-5.271c-0.676 0-1.316 0.139-1.909 0.372h-0.021l-0.047 0.021c-0.046 0.02-0.09 0.041-0.135 0.061l-5.41 2.451C38.321 30.489 41.289 27.662 44.913 27.662zM34.773 40.264c0-0.801 0.432-1.497 1.07-1.886 1.505 3.523 5.003 5.998 9.069 5.998 0.829 0 1.5-0.671 1.5-1.5 0-0.828-0.671-1.5-1.5-1.5-2.489 0-4.665-1.336-5.867-3.326h33.388c1.424 3.694 5.002 6.326 9.192 6.326 0.829 0 1.5-0.671 1.5-1.5 0-0.828-0.671-1.5-1.5-1.5-2.489 0-4.665-1.336-5.867-3.326h10.827c0.875 0 1.627 0.516 1.986 1.256 0.141 0.291 0.227 0.613 0.227 0.958v2.042 1.256 3 6.572H34.773V40.264zM36.986 96.789c-1.22 0-2.213-0.993-2.213-2.214v-38.44h54.111v31.547h-3.735c-2.761 0-5 2.238-5 5v4.107H36.986zM83.149 95.671v-2.99c0-1.103 0.897-2 2-2h2.849L83.149 95.671zM93.056 90.32c0 0.344-0.086 0.666-0.228 0.957-0.203 0.42-0.549 0.761-1.029 0.982h-1.428l1.514-1.578v-2.404-0.596-1V56.134h0.392l0.779-0.437v32.579V90.32zM97.227 86.064c0 0.841-0.479 1.565-1.171 1.939V54.019l1.171-0.654V86.064z" data-fill-palette-color="accent"></path><path display="none" fill="#ffffff" d="M101.711 51.722c-0.241-0.432-0.666-0.692-1.121-0.751v-5.826-3-0.982-2.315c0-0.295-0.039-0.58-0.086-0.861-0.412-2.467-2.543-4.352-5.127-4.352H91.06c-1.382-3.779-5.006-6.486-9.257-6.486-4.25 0-7.87 2.709-9.251 6.486H54.347c-1.382-3.779-5.006-6.486-9.257-6.486-5.436 0-9.857 4.422-9.857 9.857 0 0.298 0.019 0.592 0.045 0.883l-0.106 0.048c-0.031 0.013-0.062 0.028-0.093 0.042l-0.127 0.058h0.021c-1.78 0.829-3.021 2.622-3.021 4.716V55.62c-0.828 0-1.5 0.672-1.5 1.5s0.672 1.5 1.5 1.5v38.441c0 2.879 2.334 5.213 5.213 5.213h42.162 1 3l4.174-4.352h4.475c2.143-0.398 3.811-2.102 4.171-4.256 2.421-0.449 4.257-2.566 4.257-5.117V54.173l0.732-0.41C101.857 53.358 102.116 52.444 101.711 51.722zM97.363 37.89c0.141 0.291 0.227 0.613 0.227 0.957v2.043 1.255 3 7.165l-5.615 3.142v-6.404-3-0.982-2.314c0-0.295-0.039-0.58-0.086-0.861-0.412-2.468-2.543-4.353-5.127-4.353H74.973c-0.014-0.176-0.027-0.353-0.027-0.532 0-0.125 0.012-0.247 0.019-0.371h20.413C96.254 36.634 97.006 37.149 97.363 37.89zM81.803 30.147c2.555 0 4.78 1.408 5.96 3.486H75.838C77.018 31.556 79.247 30.147 81.803 30.147zM71.973 37.537H42.523l2.142-0.903h27.299c-0.004 0.124-0.019 0.246-0.019 0.371C71.945 37.185 71.963 37.359 71.973 37.537zM45.09 30.147c2.555 0 4.78 1.408 5.96 3.486h-5.271c-0.675 0-1.315 0.139-1.908 0.372h-0.023l-0.052 0.023c-0.04 0.017-0.078 0.036-0.118 0.054l-5.422 2.455C38.498 32.975 41.466 30.147 45.09 30.147zM34.951 42.751c0-0.801 0.432-1.497 1.07-1.886 1.505 3.522 5.002 5.998 9.068 5.998 0.828 0 1.5-0.671 1.5-1.5s-0.672-1.5-1.5-1.5c-2.488 0-4.665-1.337-5.867-3.326H72.61c1.425 3.693 5.003 6.326 9.192 6.326 0.828 0 1.5-0.671 1.5-1.5s-0.672-1.5-1.5-1.5c-2.488 0-4.665-1.337-5.867-3.326h10.826c0.877 0 1.629 0.516 1.986 1.256 0.141 0.291 0.227 0.613 0.227 0.958v2.042 1.255 3 6.572H34.951V42.751zM37.164 99.274c-1.221 0-2.213-0.992-2.213-2.213V58.62h54.111v31.547h-3.736c-2.762 0-5 2.24-5 5v4.107H37.164zM83.326 98.159v-2.992c0-1.102 0.896-2 2-2h2.85L83.326 98.159zM93.232 92.805c0 0.344-0.086 0.666-0.227 0.957-0.203 0.42-0.551 0.762-1.031 0.982h-1.426l1.514-1.578v-2.404-0.596-1V58.62h0.391l0.779-0.436v32.578V92.805zM97.402 88.549c0 0.842-0.477 1.566-1.17 1.939V56.506l1.17-0.656V88.549zM70.963 72.78V67.5c0-1.59 1.288-2.879 2.878-2.879h4.607c1.59 0 2.878 1.289 2.878 2.879v5.279c0 1.59-1.288 2.879-2.878 2.879h-4.607C72.251 75.659 70.963 74.37 70.963 72.78zM81.326 88.891v-5.275c0-1.592-1.288-2.881-2.878-2.881h-4.607c-1.59 0-2.878 1.289-2.878 2.881v5.275c0 1.592 1.288 2.881 2.878 2.881h4.607C80.038 91.772 81.326 90.483 81.326 88.891zM79.078 88.891c0 0.35-0.283 0.633-0.63 0.633h-4.607c-0.348 0-0.63-0.283-0.63-0.633v-5.275c0-0.348 0.282-0.631 0.63-0.631h4.607c0.347 0 0.63 0.283 0.63 0.631V88.891zM55.465 72.78V67.5c0-1.59 1.288-2.879 2.879-2.879h4.606c1.59 0 2.879 1.289 2.879 2.879v5.279c0 1.59-1.289 2.879-2.879 2.879h-4.606C56.753 75.659 55.465 74.37 55.465 72.78zM66.76 81.897c0.848 0.846 0.848 2.221 0 3.068l-5.904 5.904c-0.407 0.406-0.959 0.637-1.534 0.637s-1.127-0.23-1.533-0.637l-3.254-3.254c-0.848-0.846-0.848-2.221 0-3.068 0.848-0.846 2.22-0.846 3.067 0l1.72 1.721 4.371-4.371C64.538 81.049 65.913 81.049 66.76 81.897zM50.332 67.5v5.279c0 1.59-1.289 2.879-2.88 2.879h-4.605c-1.591 0-2.88-1.289-2.88-2.879V67.5c0-1.59 1.289-2.879 2.88-2.879h4.605C49.043 64.622 50.332 65.911 50.332 67.5zM61.65 91.665l4.179-4.18v1.408c0 1.59-1.289 2.879-2.879 2.879h-1.43C61.562 91.735 61.61 91.704 61.65 91.665zM50.332 83.616v5.275c0 1.592-1.289 2.881-2.88 2.881h-4.605c-1.591 0-2.88-1.289-2.88-2.881v-5.275c0-1.592 1.289-2.881 2.88-2.881h4.605C49.043 80.735 50.332 82.024 50.332 83.616zM62.95 80.735c0.12 0 0.233 0.021 0.35 0.035-0.141 0.104-0.279 0.207-0.403 0.332l-3.575 3.576-0.925-0.926c-0.622-0.621-1.449-0.963-2.329-0.963-0.163 0-0.323 0.023-0.481 0.047 0.341-1.209 1.44-2.102 2.758-2.102H62.95z" data-fill-palette-color="accent"></path><path display="none" fill="#ffffff" d="M77.098 71.687v-5.571c0-1.677 1.359-3.038 3.037-3.038h4.861c1.677 0 3.037 1.361 3.037 3.038v5.571c0 1.677-1.36 3.038-3.037 3.038h-4.861C78.458 74.725 77.098 73.364 77.098 71.687zM67.135 91.727h1.508c1.678 0 3.037-1.361 3.037-3.038v-1.486l-4.409 4.41C67.229 91.654 67.179 91.688 67.135 91.727zM77.098 88.687V83.12c0-1.679 1.359-3.04 3.037-3.04h4.861c1.677 0 3.037 1.361 3.037 3.04v5.567c0 1.679-1.36 3.04-3.037 3.04h-4.861C78.458 91.727 77.098 90.366 77.098 88.687zM79.47 88.687c0 0.368 0.298 0.667 0.666 0.667h4.861c0.365 0 0.665-0.299 0.665-0.667V83.12c0-0.367-0.299-0.665-0.665-0.665h-4.861c-0.367 0-0.666 0.298-0.666 0.665V88.687zM47.431 91.727h4.859c1.679 0 3.04-1.361 3.04-3.04V83.12c0-1.679-1.361-3.04-3.04-3.04h-4.859c-1.678 0-3.039 1.361-3.039 3.04v5.567C44.393 90.366 45.753 91.727 47.431 91.727zM63.196 90.774c0.429 0.429 1.012 0.672 1.618 0.672s1.189-0.243 1.619-0.672l6.23-6.23c0.894-0.894 0.894-2.345 0-3.237-0.894-0.895-2.344-0.895-3.237 0l-4.612 4.612L63 84.104c-0.895-0.893-2.342-0.893-3.237 0-0.894 0.894-0.894 2.345 0 3.237L63.196 90.774zM63.783 74.725h4.86c1.678 0 3.037-1.361 3.037-3.038v-5.571c0-1.677-1.359-3.038-3.037-3.038h-4.86c-1.679 0-3.038 1.361-3.038 3.038v5.571C60.746 73.364 62.104 74.725 63.783 74.725zM47.431 74.725h4.859c1.679 0 3.04-1.361 3.04-3.038v-5.571c0-1.677-1.361-3.038-3.04-3.038h-4.859c-1.678 0-3.039 1.361-3.039 3.038v5.571C44.393 73.364 45.753 74.725 47.431 74.725zM63.783 80.081c-1.391 0-2.551 0.941-2.91 2.218 0.166-0.025 0.336-0.05 0.508-0.05 0.928 0 1.801 0.36 2.457 1.016l0.976 0.977 3.772-3.773c0.131-0.132 0.277-0.241 0.426-0.351-0.123-0.014-0.243-0.037-0.369-0.037H63.783zM102.095 53.588c0 0.94-0.763 1.704-1.703 1.704v34.687 1.135 0.677 2.73l-9.92 10.342h-3.407-1.136H38.053c-3.269 0-5.919-2.65-5.919-5.919V55.292c-0.94 0-1.703-0.763-1.703-1.704 0-0.94 0.763-1.703 1.703-1.703V37.272c0-3.27 2.65-5.92 5.919-5.92h4.637v-4.109c0-0.94 0.763-1.703 1.703-1.703s1.703 0.763 1.703 1.703v4.109h39.582v-4.109c0-0.94 0.763-1.703 1.703-1.703s1.704 0.763 1.704 1.703v4.109h5.29c2.934 0 5.353 2.14 5.82 4.942 0.053 0.319 0.099 0.643 0.099 0.978V39.9v1.116 3.407 7.463h0.099C101.332 51.885 102.095 52.648 102.095 53.588zM35.54 51.885h61.347v-7.463-3.407-1.425-2.319c0-0.392-0.098-0.757-0.257-1.088-0.407-0.84-1.261-1.426-2.255-1.426h-5.29v7.437c0 0.94-0.763 1.704-1.704 1.704s-1.703-0.763-1.703-1.704v-7.437H46.096v7.437c0 0.94-0.763 1.704-1.703 1.704s-1.703-0.763-1.703-1.704v-7.437h-4.637c-1.386 0-2.513 1.128-2.513 2.514V51.885zM95.979 94.521h-3.236c-1.252 0-2.271 1.02-2.271 2.271v3.396L95.979 94.521zM96.985 55.292H35.54v43.651c0 1.386 1.126 2.513 2.513 2.513h49.012v-4.664c0-3.135 2.543-5.678 5.678-5.678h4.243V55.292z" data-fill-palette-color="accent"></path><path display="none" fill="#ffffff" d="M54.263 76.843c1.579-0.723 2.707-1.246 2.958-1.375v-3.55l-0.249-0.944c-0.131-0.462-0.267-0.951-0.416-1.451-0.164-0.546-0.356-1.141-0.574-1.773-0.88-1.657-1.591-3.551-2.109-5.633-0.075-0.299-0.135-0.598-0.195-0.898l-0.03-0.148c1.832-0.569 3.166-2.281 3.166-4.296v-2.899c0-1.211-0.48-2.336-1.309-3.164 0.357-3.046 1.365-5.468 3.003-7.208 2.305-2.448 5.448-3.078 6.954-3.239l0.903-0.048 1.585 0.129c1.639 0.259 4.321 1.003 6.348 3.158 1.639 1.74 2.647 4.163 3.004 7.21-0.827 0.826-1.308 1.951-1.308 3.162v2.899c0 1.136 0.424 2.199 1.163 3.009-0.276 0.897-0.799 1.987-1.795 2.854-1.332 1.157-3.308 1.749-5.872 1.758-0.788-0.842-1.9-1.345-3.086-1.345-2.333 0-4.231 1.897-4.231 4.231s1.898 4.232 4.231 4.232c0.983 0 1.924-0.343 2.669-0.949 0.12 0.002 0.239 0.004 0.356 0.004 2.622 0 4.932-0.451 6.915-1.337l-0.577 1.905c-0.168 0.595-0.17 0.797-0.17 0.807v3.832c0.23 0.118 1.045 0.499 2.202 1.034-0.793 5.794-5.762 10.277-11.771 10.277C60.032 87.089 55.071 82.623 54.263 76.843zM52.318 59.299c1.393 0 2.522-1.129 2.522-2.522v-2.899c0-0.988-0.573-1.833-1.399-2.247 0.266-4.01 1.478-7.19 3.631-9.478 3.765-4 9.255-3.919 9.302-3.915l0.03-1.069 0.031 1.069c0.043-0.003 5.535-0.086 9.301 3.914 2.153 2.288 3.365 5.467 3.631 9.479-0.827 0.414-1.399 1.259-1.399 2.247v2.899c0 0.981 0.565 1.823 1.382 2.239-0.173 1.155-0.75 3.426-2.695 5.115-1.9 1.651-4.657 2.389-8.203 2.217-0.356-0.776-1.137-1.32-2.048-1.32-1.247 0-2.257 1.011-2.257 2.257 0 1.247 1.01 2.257 2.257 2.257 0.774 0 1.456-0.391 1.863-0.984 0.392 0.02 0.785 0.039 1.163 0.039 3.648 0 6.569-0.944 8.709-2.818 2.631-2.307 3.285-5.347 3.448-6.74 0.841-0.409 1.425-1.263 1.425-2.263v-2.899c0-0.998-0.584-1.851-1.424-2.261-0.282-4.614-1.705-8.305-4.26-11.007-4.395-4.645-10.481-4.602-10.924-4.587-0.465-0.014-6.539-0.049-10.926 4.587-2.555 2.702-3.978 6.393-4.259 11.007-0.839 0.411-1.424 1.263-1.424 2.261v2.899C49.796 58.169 50.925 59.299 52.318 59.299zM100.183 93.09c-0.257-1.314-0.679-2.579-1.244-3.743-0.494-1.054-1.146-2.049-1.992-3.041-0.898-1.056-2.086-1.856-3.502-2.366-0.33-0.14-8.554-3.874-13.743-6.254-1.18 6.483-6.855 11.417-13.674 11.417-6.809 0-12.479-4.921-13.67-11.391-5.402 2.465-13.372 6.071-13.732 6.221-1.406 0.518-2.573 1.316-3.471 2.374-0.861 1.012-1.512 2.008-1.982 3.021-0.565 1.152-1.001 2.408-1.294 3.734l-0.027 6.655h8.67 2.486 46.042 2.486 8.669v-6.399L100.183 93.09z" data-fill-palette-color="accent"></path><g display="none" fill="#ffffff" data-fill-palette-color="accent"><path display="inline" fill="#ffffff" d="M83.474 27.024c11.216 0 20.341 9.125 20.341 20.341 0 8.341-5.002 15.748-12.744 18.869l-0.657 0.265-0.469 0.53-3.472 3.925v-0.249-3h-3c-11.216 0-20.341-9.125-20.341-20.341S72.258 27.024 83.474 27.024M86.856 47.021c-0.89-0.879-2.115-1.405-3.507-1.405-1.401 0-2.635 0.526-3.531 1.405-0.89-0.879-2.114-1.405-3.506-1.405-2.873 0-5.04 2.21-5.04 5.142 0 2.883 2.199 5.142 5.006 5.142 1.411 0 2.651-0.533 3.548-1.422 0.895 0.885 2.12 1.422 3.489 1.422 1.411 0 2.651-0.533 3.549-1.423 0.896 0.885 2.12 1.423 3.489 1.423 2.873 0 5.04-2.21 5.04-5.142s-2.152-5.142-5.006-5.142C88.986 45.615 87.752 46.141 86.856 47.021M31.494 42.36l9.665 9.649-2.181 2.177-9.666-9.649L31.494 42.36M25.331 52.147l7.975 7.96c-1.11 1.238-1.717 2.82-1.716 4.495 0 1.802 0.703 3.496 1.979 4.769l24.823 24.78c1.275 1.271 2.969 1.972 4.771 1.972 1.677 0 3.261-0.607 4.501-1.717l7.968 7.954c-1.383 0.24-2.732 0.358-4.064 0.358-8.54 0-16.735-4.86-29.23-17.335C28.381 71.451 23.543 62.381 25.331 52.147M75.654 86.444l9.666 9.648-2.181 2.177-9.666-9.648L75.654 86.444M83.474 24.024c-12.891 0-23.341 10.45-23.341 23.341s10.45 23.341 23.341 23.341v8.169l8.719-9.858c8.57-3.455 14.622-11.844 14.622-21.651C106.814 34.475 96.364 24.024 83.474 24.024L83.474 24.024zM90.354 52.898c-1.189 0-2.006-0.918-2.006-2.142 0-1.258 0.851-2.142 2.04-2.142s2.006 0.884 2.006 2.142C92.394 51.98 91.611 52.898 90.354 52.898L90.354 52.898zM83.315 52.898c-1.189 0-2.006-0.918-2.006-2.142 0-1.258 0.851-2.142 2.04-2.142s2.006 0.884 2.006 2.142C85.355 51.98 84.573 52.898 83.315 52.898L83.315 52.898zM76.278 52.898c-1.189 0-2.006-0.918-2.006-2.142 0-1.258 0.851-2.142 2.04-2.142s2.006 0.884 2.006 2.142C78.318 51.98 77.536 52.898 76.278 52.898L76.278 52.898zM31.494 38.699c-0.357 0-0.715 0.136-0.988 0.409l-5.439 5.43 13.912 13.889 5.439-5.431c0.545-0.544 0.546-1.429 0-1.972L32.482 39.107C32.209 38.835 31.852 38.699 31.494 38.699L31.494 38.699zM23.775 46.355c-5.256 15.02 1.211 25.945 16.441 41.15 11.713 11.693 20.892 18.212 31.35 18.212 3.141 0 6.396-0.588 9.872-1.8L67.67 90.174l-1.856 1.854c-0.732 0.73-1.692 1.096-2.652 1.096s-1.919-0.365-2.652-1.096L35.688 67.248c-1.465-1.462-1.465-3.832 0-5.295l1.857-1.853L23.775 46.355 23.775 46.355zM75.654 82.783c-0.358 0-0.715 0.136-0.988 0.409l-5.439 5.43 13.912 13.887 5.439-5.43c0.545-0.545 0.545-1.428 0-1.973L76.643 83.191C76.37 82.919 76.012 82.783 75.654 82.783L75.654 82.783z" data-fill-palette-color="accent"></path></g><g display="none" fill="#ffffff" data-fill-palette-color="accent"><path display="inline" fill="#ffffff" d="M95.311 30.894c1.453 0 2.819 0.566 3.846 1.593 1.337 1.338 1.831 3.204 1.482 4.933l-6.417-6.417C94.576 30.931 94.94 30.894 95.311 30.894M87.806 36.146l7.693 7.692-0.865 0.865-7.693-7.692L87.806 36.146M80.904 43.048l7.693 7.692L46.685 92.652l-7.693-7.692L80.904 43.048M34.526 92.531l4.587 4.587-1.46 0.391-3.518-3.519L34.526 92.531M95.311 27.894c-2.16 0-4.32 0.824-5.968 2.472l11.936 11.936c3.295-3.296 3.295-8.639 0-11.936C99.63 28.718 97.47 27.894 95.311 27.894L95.311 27.894zM87.806 31.904l-5.107 5.107 11.936 11.935 5.107-5.107L87.806 31.904 87.806 31.904zM80.904 38.805L34.749 84.96l11.936 11.935L92.84 50.74 80.904 38.805 80.904 38.805zM32.974 86.736l-2.185 8.151 5.968 5.969 8.152-2.185L32.974 86.736 32.974 86.736zM30.142 97.304l-1.537 5.736 5.736-1.537L30.142 97.304 30.142 97.304z" data-fill-palette-color="accent"></path></g><path display="none" fill="#ffffff" d="M65.371 38.907c-12.083 0-21.876 9.794-21.876 21.876 0 5.426 1.985 10.378 5.255 14.201 0 0 4.285 4.453 6.116 8.781-0.465 0.547-0.756 1.247-0.756 2.021v3.119l-0.494 0.172c-0.782 0.272-1.195 1.128-0.923 1.91 0.216 0.619 0.796 1.007 1.417 1.007v3.276l-0.494 0.172c-0.782 0.272-1.195 1.128-0.923 1.91 0.216 0.619 0.796 1.007 1.417 1.007v1.917c0 1.734 1.406 3.14 3.14 3.14h0.612c0 4.14 3.369 7.508 7.51 7.508 4.14 0 7.508-3.368 7.508-7.508h0.612c1.734 0 3.141-1.406 3.141-3.14v-3.374l0.494-0.172c0.782-0.272 1.195-1.128 0.923-1.91-0.216-0.619-0.795-1-1.417-1V90.6l0.494-0.172c0.782-0.272 1.195-1.128 0.923-1.91-0.216-0.619-0.795-1-1.417-1v-1.731c0-0.771-0.289-1.468-0.75-2.014 1.833-4.329 6.13-8.789 6.13-8.789 3.271-3.822 5.236-8.774 5.236-14.2C87.248 48.702 77.454 38.907 65.371 38.907zM61.728 76.723c-0.626-1.892-2.09-7.11-3.082-10.694 0.046 0 0.093-0.001 0.139-0.003 0.857-0.038 1.642-0.402 2.347-1.087 0.951 1.191 2.359 2.227 4.238 2.227s3.288-1.035 4.238-2.227c0.705 0.685 1.489 1.049 2.347 1.087 0.047 0.002 0.093 0.003 0.139 0.003-0.992 3.584-2.456 8.803-3.082 10.694-0.518 1.563-0.945 3.91-1.25 5.924h-4.784C62.673 80.633 62.246 78.287 61.728 76.723zM57.109 85.786c0-0.077 0.063-0.139 0.14-0.139h6.21l-6.351 2.213V85.786zM57.109 91.037l10.147-3.536c0.764-0.266 1.171-1.087 0.937-1.854h5.298c0.078 0 0.141 0.062 0.141 0.139v2.682l-16.522 5.756V91.037zM65.371 107.923c-2.487 0-4.51-2.022-4.51-4.508h9.018C69.879 105.901 67.857 107.923 65.371 107.923zM73.632 100.275c0 0.077-0.063 0.14-0.141 0.14h-6.943l7.083-2.468V100.275zM73.632 94.771l-10.147 3.536c-0.782 0.272-1.195 1.128-0.923 1.91 0.026 0.074 0.072 0.132 0.107 0.199H57.25c-0.077 0-0.14-0.063-0.14-0.14v-2.874l16.522-5.756V94.771zM79.787 72.97c-1.075 1.122-4.84 5.246-6.686 9.677h-2.305c0.278-1.774 0.643-3.712 1.062-4.98 1.011-3.054 3.998-14.001 4.124-14.466 0.195-0.718-0.167-1.466-0.848-1.765-0.68-0.296-1.48-0.047-1.875 0.582-0.294 0.47-0.865 0.999-1.174 1.011-0.176-0.009-0.667-0.345-1.264-1.553-0.268-0.543-0.838-0.876-1.438-0.833-0.604 0.038-1.125 0.434-1.324 1.005-0.009 0.025-0.923 2.518-2.69 2.518-1.768 0-2.684-2.499-2.69-2.518-0.198-0.571-0.72-0.967-1.324-1.005-0.604-0.044-1.171 0.29-1.438 0.833-0.597 1.208-1.088 1.544-1.264 1.553-0.287-0.003-0.879-0.541-1.169-1.003-0.39-0.639-1.19-0.894-1.875-0.598-0.687 0.296-1.05 1.051-0.854 1.772 0.126 0.464 3.113 11.412 4.124 14.466 0.42 1.268 0.785 3.207 1.062 4.98h-2.3c-1.84-4.432-5.597-8.556-6.667-9.676-2.891-3.409-4.481-7.734-4.481-12.188 0-10.408 8.468-18.876 18.876-18.876s18.876 8.468 18.876 18.876C84.248 65.251 82.664 69.576 79.787 72.97zM63.87 33.369V20.907c0-0.829 0.671-1.5 1.5-1.5s1.5 0.671 1.5 1.5v12.461c0 0.829-0.671 1.5-1.5 1.5S63.87 34.197 63.87 33.369zM39.306 60.783c0 0.829-0.671 1.5-1.5 1.5H25.345c-0.829 0-1.5-0.671-1.5-1.5s0.671-1.5 1.5-1.5h12.461C38.635 59.283 39.306 59.955 39.306 60.783zM106.602 60.783c0 0.829-0.671 1.5-1.5 1.5H92.641c-0.829 0-1.5-0.671-1.5-1.5s0.671-1.5 1.5-1.5h12.461C105.931 59.283 106.602 59.955 106.602 60.783zM34.975 34.901c-0.586-0.585-0.586-1.536 0-2.121 0.586-0.586 1.535-0.586 2.121 0l8.812 8.812c0.586 0.585 0.586 1.536 0 2.121-0.293 0.293-0.677 0.439-1.061 0.439s-0.768-0.146-1.061-0.439L34.975 34.901zM84.842 43.712c-0.586-0.585-0.586-1.536 0-2.121l8.812-8.812c0.586-0.586 1.535-0.586 2.121 0 0.586 0.585 0.586 1.536 0 2.121l-8.812 8.812c-0.293 0.293-0.677 0.439-1.061 0.439S85.135 44.005 84.842 43.712z" data-fill-palette-color="accent"></path><path fill="#ffffff" d="M66 101.192c-19.699 0-35.725-16.026-35.725-35.725S46.301 29.743 66 29.743s35.725 16.026 35.725 35.725S85.699 101.192 66 101.192zM66 32.743c-18.044 0-32.725 14.68-32.725 32.725S47.956 98.192 66 98.192s32.725-14.68 32.725-32.725S84.044 32.743 66 32.743zM89.694 68.489c-3.053 0-5.537-2.484-5.537-5.537 0-8.56-6.963-15.523-15.521-15.523-3.054 0-5.538-2.483-5.538-5.536 0-3.054 2.484-5.538 5.538-5.538 14.665 0 26.596 11.932 26.596 26.598C95.231 66.005 92.748 68.489 89.694 68.489zM68.636 39.354c-1.399 0-2.538 1.139-2.538 2.538 0 1.398 1.139 2.536 2.538 2.536 10.213 0 18.521 8.31 18.521 18.523 0 1.399 1.138 2.537 2.537 2.537s2.537-1.138 2.537-2.537C92.231 49.94 81.646 39.354 68.636 39.354zM56.201 48.29c-3 0-5.439-2.44-5.439-5.44 0-3.001 2.44-5.442 5.439-5.442 3 0 5.441 2.441 5.441 5.441S59.202 48.29 56.201 48.29zM56.201 40.407c-1.345 0-2.439 1.096-2.439 2.442 0 1.346 1.094 2.44 2.439 2.44 1.346 0 2.441-1.095 2.441-2.441S57.547 40.407 56.201 40.407z" data-fill-palette-color="accent"></path></g></svg></g></svg></g><g></g></svg></g><defs></defs></svg><rect width="213.34510653164776" height="247.2" fill="none" stroke="none" visibility="hidden"></rect></g></svg></g></svg>